<?xml version="1.0" standalone="no"?><!DOCTYPE svg PUBLIC "-//W3C//DTD SVG 1.1//EN" "http://www.w3.org/Graphics/SVG/1.1/DTD/svg11.dtd"><svg t="1608705918193" class="icon" viewBox="0 0 1024 1024" version="1.1" xmlns="http://www.w3.org/2000/svg" p-id="6926" xmlns:xlink="http://www.w3.org/1999/xlink" width="64" height="64"><defs><style type="text/css"></style></defs><path d="M360.57 928.22c-33.36 0-66.72-12.68-92.12-38.08L134.43 756.15c-50.78-50.8-50.78-133.49 0-184.29l100.52-100.5c13.88-13.88 36.37-13.88 50.25 0 13.88 13.88 13.88 36.37 0 50.25L184.68 622.1c-23.09 23.09-23.09 60.7 0 83.79L318.7 839.88c23.09 23.04 60.68 23 83.77 0l201.01-201.04c23.06-23.09 23.06-60.66-0.02-83.75l-67-67c-13.88-13.88-13.88-36.37 0-50.25s36.37-13.88 50.25 0l67.02 67c50.78 50.85 50.76 133.49 0 184.24L452.71 890.14c-25.4 25.4-58.76 38.08-92.14 38.08z" p-id="6927"></path><path d="M461.09 599.02c-9.09 0-18.18-3.47-25.12-10.41l-67.02-67c-50.78-50.85-50.76-133.49 0-184.24l201.01-201.04c50.8-50.8 133.46-50.8 184.27 0l134.02 133.99c50.78 50.8 50.78 133.49 0 184.29l-100.52 100.5c-13.88 13.88-36.37 13.88-50.25 0s-13.88-36.37 0-50.25L838 404.36c23.09-23.09 23.09-60.7 0-83.79L703.97 186.58c-23.13-23.09-60.73-23.04-83.77 0L419.19 387.62c-23.06 23.09-23.06 60.66 0.02 83.75l67 67c13.88 13.88 13.88 36.37 0 50.25-6.94 6.93-16.03 10.4-25.12 10.4z" p-id="6928"></path></svg>