<?xml version="1.0" standalone="no"?><!DOCTYPE svg PUBLIC "-//W3C//DTD SVG 1.1//EN" "http://www.w3.org/Graphics/SVG/1.1/DTD/svg11.dtd"><svg t="1615269254358" class="icon" viewBox="0 0 1024 1024" version="1.1" xmlns="http://www.w3.org/2000/svg" p-id="2729" xmlns:xlink="http://www.w3.org/1999/xlink" width="128" height="128"><defs><style type="text/css"></style></defs><path d="M512 66.53c-214.9 0-389.11 174.21-389.11 389.11 0 157.82 209.86 372.39 321.34 475.24 19.21 17.73 43.49 26.59 67.77 26.59 24.28 0 48.56-8.86 67.77-26.59 111.48-102.85 321.34-317.42 321.34-475.24 0-214.9-174.21-389.11-389.11-389.11z m18.3 810.73c-6.5 6-13.54 7.26-18.3 7.26-4.76 0-11.8-1.26-18.3-7.26-183.72-169.5-297.85-331.05-297.85-421.62 0-174.33 141.83-316.15 316.15-316.15s316.15 141.83 316.15 316.15c0 90.57-114.13 252.12-297.85 421.62z" p-id="2730"></path><path d="M512 309.72c-80.46 0-145.92 65.46-145.92 145.92S431.54 601.56 512 601.56s145.92-65.46 145.92-145.92S592.46 309.72 512 309.72z m0 218.88c-40.29 0-72.96-32.66-72.96-72.96s32.66-72.96 72.96-72.96 72.96 32.66 72.96 72.96S552.29 528.6 512 528.6z" p-id="2731"></path></svg>