<?xml version="1.0" standalone="no"?><!DOCTYPE svg PUBLIC "-//W3C//DTD SVG 1.1//EN" "http://www.w3.org/Graphics/SVG/1.1/DTD/svg11.dtd"><svg t="1615269332640" class="icon" viewBox="0 0 1024 1024" version="1.1" xmlns="http://www.w3.org/2000/svg" p-id="3433" xmlns:xlink="http://www.w3.org/1999/xlink" width="128" height="128"><defs><style type="text/css"></style></defs><path d="M875.86 362.73c-20.12-48.12-81.62-83.18-160.97-104.5v-80.71c0-18.58-15.07-33.65-33.65-33.65s-33.65 15.07-33.65 33.65v66.44c-32.5-5.18-66.56-8.44-100.94-9.72V132.65C546.65 114.08 531.58 99 513 99s-33.65 15.07-33.65 33.65v101.59c-34.39 1.28-68.44 4.53-100.94 9.72v-66.44c0-18.58-15.07-33.65-33.65-33.65s-33.65 15.07-33.65 33.65v80.71c-79.35 21.32-140.85 56.38-160.97 104.5-4.28 5.64-7.28 12.34-7.28 19.96v367.68c0 2.62 0.93 4.94 1.49 7.38-0.57 2.45-1.49 4.76-1.49 7.38C142.87 872.7 329.07 929 513 929s370.13-56.3 370.13-163.86c0-2.62-0.93-4.94-1.49-7.38 0.57-2.45 1.49-4.76 1.49-7.38V382.69c0-7.62-2.99-14.32-7.27-19.96zM311.11 328.8v28.17c0 18.58 15.07 33.65 33.65 33.65s33.65-15.07 33.65-33.65v-44.45c30.44-5.51 64.13-9.47 100.94-10.95v100.27c0 18.58 15.07 33.65 33.65 33.65s33.65-15.07 33.65-33.65V301.57c36.81 1.48 70.51 5.44 100.94 10.95v44.45c0 18.58 15.07 33.65 33.65 33.65s33.65-15.07 33.65-33.65V328.8c63.85 20.14 100.94 47.4 100.94 68.65 0 38.42-120.79 96.56-302.83 96.56s-302.83-58.14-302.83-96.56c0-21.25 37.09-48.5 100.94-68.65zM513 861.7c-182.04 0-302.83-58.14-302.83-96.56 0-2.62-0.93-4.94-1.49-7.38 0.57-2.45 1.49-4.76 1.49-7.38v-254.7C280.75 539 397.28 561.32 513 561.32s232.25-22.33 302.83-65.64v254.7c0 2.62 0.93 4.94 1.49 7.38-0.57 2.45-1.49 4.76-1.49 7.38 0 38.42-120.79 96.56-302.83 96.56z" p-id="3434"></path></svg>