<?xml version="1.0" standalone="no"?><!DOCTYPE svg PUBLIC "-//W3C//DTD SVG 1.1//EN" "http://www.w3.org/Graphics/SVG/1.1/DTD/svg11.dtd"><svg t="1611217525360" class="icon" viewBox="0 0 1024 1024" version="1.1" xmlns="http://www.w3.org/2000/svg" p-id="2072" xmlns:xlink="http://www.w3.org/1999/xlink" width="128" height="128"><defs><style type="text/css"></style></defs><path d="M761.09 333.42c12.78 0 23.17 10.39 23.17 23.17v417.08c0 12.78-10.39 23.17-23.17 23.17H158.64c-12.78 0-23.17-10.39-23.17-23.17V356.59c0-12.78 10.39-23.17 23.17-23.17h602.45m0-69.51H158.64c-51.19 0-92.68 41.5-92.68 92.68v417.08c0 51.19 41.5 92.68 92.68 92.68h602.45c51.19 0 92.68-41.5 92.68-92.68V356.59c0-51.18-41.49-92.68-92.68-92.68z" p-id="2073"></path><path d="M923.29 738.92c-19.19 0-34.76-15.57-34.76-34.76V287.08c0-31.95-25.98-57.93-57.93-57.93H228.15c-19.19 0-34.76-15.57-34.76-34.76s15.57-34.76 34.76-34.76H830.6c70.28 0 127.44 57.16 127.44 127.44v417.08c0.01 19.2-15.56 34.77-34.75 34.77z" p-id="2074"></path><path d="M459.86 515.53c-8.92 0-17.79-3.39-24.57-10.18l-63-63c-13.58-13.58-13.58-35.57 0-49.15 13.58-13.58 35.57-13.58 49.15 0l38.42 38.42 38.42-38.42c13.58-13.58 35.57-13.58 49.15 0 13.58 13.58 13.58 35.57 0 49.15l-63 63c-6.78 6.79-15.65 10.18-24.57 10.18z" p-id="2075"></path><path d="M543.86 568.39H375.87c-19.19 0-34.76-15.57-34.76-34.76 0-19.19 15.57-34.76 34.76-34.76h167.99c19.19 0 34.76 15.57 34.76 34.76 0 19.2-15.57 34.76-34.76 34.76zM564.86 669.41H354.87c-19.19 0-34.76-15.57-34.76-34.76 0-19.19 15.57-34.76 34.76-34.76h209.99c19.19 0 34.76 15.57 34.76 34.76 0 19.19-15.57 34.76-34.76 34.76z" p-id="2076"></path><path d="M459.86 746.88c-19.19 0-34.76-15.57-34.76-34.76V523.14c0-19.19 15.57-34.76 34.76-34.76s34.76 15.57 34.76 34.76v188.99c0 19.19-15.57 34.75-34.76 34.75z" p-id="2077"></path></svg>