<?xml version="1.0" standalone="no"?><!DOCTYPE svg PUBLIC "-//W3C//DTD SVG 1.1//EN" "http://www.w3.org/Graphics/SVG/1.1/DTD/svg11.dtd"><svg t="1615269319640" class="icon" viewBox="0 0 1024 1024" version="1.1" xmlns="http://www.w3.org/2000/svg" p-id="3011" xmlns:xlink="http://www.w3.org/1999/xlink" width="128" height="128"><defs><style type="text/css"></style></defs><path d="M713.04 63.87H314.96c-68.59 0-124.4 55.8-124.4 124.4v646.89c0 68.59 55.81 124.4 124.4 124.4h398.08c68.59 0 124.4-55.81 124.4-124.4V188.27c0-68.6-55.8-124.4-124.4-124.4z m49.76 771.29c0 27.48-22.28 49.76-49.76 49.76H314.96c-27.48 0-49.76-22.28-49.76-49.76V188.27c0-27.48 22.28-49.76 49.76-49.76h64.69v12.44c0 27.48 22.28 49.76 49.76 49.76H598.6c27.48 0 49.76-22.28 49.76-49.76v-12.44h64.69c27.48 0 49.76 22.28 49.76 49.76v646.89z" p-id="3012"></path><path d="M603.56 743.12H424.44c-20.6 0-37.32 16.72-37.32 37.32s16.72 37.32 37.32 37.32h179.12c20.6 0 37.32-16.72 37.32-37.32s-16.72-37.32-37.32-37.32z" p-id="3013"></path></svg>