<?xml version="1.0" standalone="no"?><!DOCTYPE svg PUBLIC "-//W3C//DTD SVG 1.1//EN" "http://www.w3.org/Graphics/SVG/1.1/DTD/svg11.dtd"><svg t="1609400113435" class="icon" viewBox="0 0 1024 1024" version="1.1" xmlns="http://www.w3.org/2000/svg" p-id="2072" xmlns:xlink="http://www.w3.org/1999/xlink" width="64" height="64"><defs><style type="text/css"></style></defs><path d="M891.65 879.97c-9.08 0-18.17-3.47-25.1-10.4L582.56 585.58c-13.87-13.87-13.87-36.33 0-50.2 13.87-13.87 36.33-13.87 50.2 0l283.98 283.98c13.87 13.87 13.87 36.33 0 50.2-6.93 6.94-16.01 10.41-25.09 10.41z" p-id="2073"></path><path d="M607.66 879.97c-9.08 0-18.16-3.47-25.1-10.4-13.87-13.87-13.87-36.33 0-50.2l283.98-283.98c13.87-13.87 36.33-13.87 50.2 0 13.87 13.87 13.87 36.33 0 50.2L632.76 869.57c-6.93 6.93-16.02 10.4-25.1 10.4z" p-id="2074"></path><path d="M513 927.3H229.02c-71.78 0-130.16-58.38-130.16-130.16V229.17c0-71.78 58.38-130.16 130.16-130.16h567.97c71.78 0 130.16 58.38 130.16 130.16v236.65c0 19.6-15.9 35.5-35.5 35.5s-35.5-15.9-35.5-35.5V229.17c0-32.63-26.53-59.16-59.16-59.16H229.02c-32.63 0-59.16 26.53-59.16 59.16v567.97c0 32.63 26.53 59.16 59.16 59.16H513c19.6 0 35.5 15.9 35.5 35.5s-15.9 35.5-35.5 35.5z" p-id="2075"></path></svg>