<?xml version="1.0" standalone="no"?><!DOCTYPE svg PUBLIC "-//W3C//DTD SVG 1.1//EN" "http://www.w3.org/Graphics/SVG/1.1/DTD/svg11.dtd"><svg t="1611217596960" class="icon" viewBox="0 0 1024 1024" version="1.1" xmlns="http://www.w3.org/2000/svg" p-id="2457" xmlns:xlink="http://www.w3.org/1999/xlink" width="128" height="128"><defs><style type="text/css"></style></defs><path d="M834.33 868.75H191.67c-69.62 0-126.24-56.62-126.24-126.24V283.48c0-69.62 56.62-126.24 126.24-126.24h642.65c69.62 0 126.23 56.62 126.23 126.24v459.04c0.01 69.62-56.61 126.23-126.22 126.23zM191.67 226.1c-31.65 0-57.38 25.73-57.38 57.38v459.04c0 31.65 25.73 57.38 57.38 57.38h642.65c31.65 0 57.38-25.73 57.38-57.38V283.48c0-31.65-25.73-57.38-57.38-57.38H191.67z" p-id="2458"></path><path d="M960.56 685.14H559.02c-69.66 0-126.35-56.66-126.35-126.32v-91.63c0-69.66 56.68-126.32 126.35-126.32h401.54v344.27zM559.02 409.72c-31.69 0-57.49 25.78-57.49 57.47v91.63c0 31.69 25.8 57.47 57.49 57.47h332.69V409.72H559.02z" p-id="2459"></path><path d="M703.18 513m-68.86 0a68.86 68.86 0 1 0 137.72 0 68.86 68.86 0 1 0-137.72 0Z" p-id="2460"></path></svg>