<?xml version="1.0" standalone="no"?><!DOCTYPE svg PUBLIC "-//W3C//DTD SVG 1.1//EN" "http://www.w3.org/Graphics/SVG/1.1/DTD/svg11.dtd"><svg t="1615260847890" class="icon" viewBox="0 0 1024 1024" version="1.1" xmlns="http://www.w3.org/2000/svg" p-id="3258" xmlns:xlink="http://www.w3.org/1999/xlink" width="128" height="128"><defs><style type="text/css"></style></defs><path d="M939.28 254.33c-17.35-7.07-37.17 1.24-44.29 18.57l-26.51 64.65c-65.9-132.47-203.16-220.38-354.36-220.38-195.49 0-363.83 145.96-391.59 339.52-2.67 18.57 10.21 35.76 28.78 38.41 1.64 0.27 3.25 0.35 4.86 0.35 16.62 0 31.14-12.2 33.55-29.13 23-160.32 162.46-281.26 324.4-281.26 126.03 0 240.37 73.73 294.56 184.57l-73.2-30.03c-17.37-7.03-37.15 1.24-44.29 18.57-7.12 17.33 1.17 37.17 18.52 44.29l144.52 59.28c4.13 1.68 8.51 2.52 12.89 2.52 4.46 0 8.91-0.88 13.11-2.61a33.9 33.9 0 0 0 18.3-18.48l59.28-144.54c7.11-17.34-1.18-37.19-18.53-44.3zM872.38 531.35c-18.48-3.14-35.76 10.21-38.41 28.78-23.01 160.37-162.47 281.26-324.4 281.26-126.03 0-240.37-73.73-294.56-184.57l73.2 30.03c17.39 7.16 37.17-1.19 44.29-18.57 7.12-17.33-1.17-37.17-18.52-44.29l-144.52-59.28c-8.35-3.36-17.68-3.36-25.99 0.09a33.9 33.9 0 0 0-18.3 18.48L65.88 727.83c-7.12 17.33 1.17 37.17 18.52 44.29 4.22 1.72 8.58 2.52 12.86 2.52 13.37 0 26.06-7.96 31.43-21.08l26.51-64.65c65.9 132.47 203.16 220.38 354.36 220.38 195.51 0 363.85-145.96 391.59-339.52 2.68-18.58-10.2-35.77-28.77-38.42z" p-id="3259"></path></svg>