<?xml version="1.0" standalone="no"?><!DOCTYPE svg PUBLIC "-//W3C//DTD SVG 1.1//EN" "http://www.w3.org/Graphics/SVG/1.1/DTD/svg11.dtd"><svg t="1608705911805" class="icon" viewBox="0 0 1024 1024" version="1.1" xmlns="http://www.w3.org/2000/svg" p-id="6787" xmlns:xlink="http://www.w3.org/1999/xlink" width="64" height="64"><defs><style type="text/css"></style></defs><path d="M511 893.34c-210.82 0-382.34-171.5-382.34-382.34S300.18 128.66 511 128.66 893.34 300.16 893.34 511 721.82 893.34 511 893.34z m0-699.14c-174.68 0-316.8 142.1-316.8 316.8S336.32 827.8 511 827.8 827.8 685.7 827.8 511 685.68 194.2 511 194.2z" p-id="6788"></path><path d="M511 674.86c-90.36 0-163.86-73.52-163.86-163.86S420.64 347.14 511 347.14 674.86 420.66 674.86 511 601.36 674.86 511 674.86z m0-262.18c-54.22 0-98.32 44.12-98.32 98.32s44.1 98.32 98.32 98.32 98.32-44.12 98.32-98.32-44.1-98.32-98.32-98.32zM511 259.74c-18.09 0-32.77-14.68-32.77-32.77V95.88c0-18.09 14.68-32.77 32.77-32.77 18.09 0 32.77 14.68 32.77 32.77v131.09c0 18.1-14.68 32.77-32.77 32.77zM226.97 543.77H95.88c-18.09 0-32.77-14.68-32.77-32.77 0-18.09 14.68-32.77 32.77-32.77h131.09c18.09 0 32.77 14.68 32.77 32.77 0 18.09-14.67 32.77-32.77 32.77zM511 958.89c-18.09 0-32.77-14.68-32.77-32.77V795.03c0-18.09 14.68-32.77 32.77-32.77 18.09 0 32.77 14.68 32.77 32.77v131.09c0 18.09-14.68 32.77-32.77 32.77zM926.12 543.77H795.03c-18.09 0-32.77-14.68-32.77-32.77 0-18.09 14.68-32.77 32.77-32.77h131.09c18.09 0 32.77 14.68 32.77 32.77 0 18.09-14.68 32.77-32.77 32.77z" p-id="6789"></path></svg>