<?xml version="1.0" standalone="no"?><!DOCTYPE svg PUBLIC "-//W3C//DTD SVG 1.1//EN" "http://www.w3.org/Graphics/SVG/1.1/DTD/svg11.dtd"><svg t="1610348365408" class="icon" viewBox="0 0 1024 1024" version="1.1" xmlns="http://www.w3.org/2000/svg" p-id="4747" xmlns:xlink="http://www.w3.org/1999/xlink" width="64" height="64"><defs><style type="text/css"></style></defs><path d="M770.94 958.73H311.91c-69.62 0-126.23-56.62-126.23-126.23V189.85c0-69.62 56.62-126.23 126.23-126.23h459.03c69.62 0 126.23 56.62 126.23 126.23V832.5c0.01 69.61-56.61 126.23-126.23 126.23zM311.91 132.47c-31.65 0-57.38 25.73-57.38 57.38V832.5c0 31.65 25.73 57.38 57.38 57.38h459.03c31.65 0 57.38-25.73 57.38-57.38V189.85c0-31.65-25.73-57.38-57.38-57.38H311.91z" p-id="4748"></path><path d="M541.43 376.01c29.53 0 53.55 24.02 53.55 53.55s-24.02 53.55-53.55 53.55-53.55-24.02-53.55-53.55 24.02-53.55 53.55-53.55m0-68.86c-67.6 0-122.41 54.8-122.41 122.41 0 67.6 54.8 122.41 122.41 122.41s122.41-54.8 122.41-122.41c0-67.6-54.81-122.41-122.41-122.41z" p-id="4749"></path><path d="M541.43 559.62c53.6 0 98.74 36.95 111.29 86.71H430.14c12.55-49.76 57.68-86.71 111.29-86.71m0-68.85c-101.41 0-183.61 82.21-183.61 183.61 0 14.07 1.91 27.64 4.91 40.8h357.41c3-13.17 4.91-26.73 4.91-40.8-0.01-101.41-82.21-183.61-183.62-183.61zM288.96 316.08H151.25c-19.01 0-34.43-15.42-34.43-34.43 0-19.01 15.42-34.43 34.43-34.43h137.71c19.01 0 34.43 15.42 34.43 34.43 0 19.01-15.42 34.43-34.43 34.43zM288.96 545.6H151.25c-19.01 0-34.43-15.42-34.43-34.43s15.42-34.43 34.43-34.43h137.71c19.01 0 34.43 15.42 34.43 34.43s-15.42 34.43-34.43 34.43zM288.96 775.11H151.25c-19.01 0-34.43-15.42-34.43-34.43 0-19.01 15.42-34.43 34.43-34.43h137.71c19.01 0 34.43 15.42 34.43 34.43 0 19.01-15.42 34.43-34.43 34.43z" p-id="4750"></path></svg>