<?xml version="1.0" standalone="no"?><!DOCTYPE svg PUBLIC "-//W3C//DTD SVG 1.1//EN" "http://www.w3.org/Graphics/SVG/1.1/DTD/svg11.dtd"><svg t="1610349942233" class="icon" viewBox="0 0 1024 1024" version="1.1" xmlns="http://www.w3.org/2000/svg" p-id="5762" xmlns:xlink="http://www.w3.org/1999/xlink" width="128" height="128"><defs><style type="text/css"></style></defs><path d="M739.89 913.5H286.11c-51.13 0-92.74-47.86-92.74-106.71v-344.8c0-17 13.79-30.78 30.78-30.78s30.78 13.79 30.78 30.78V806.8c0 24.05 14.57 45.14 31.17 45.14h453.78c16.6 0 31.17-21.08 31.17-45.14V461.99c0-17 13.79-30.78 30.78-30.78s30.78 13.79 30.78 30.78V806.8c0.01 58.84-41.59 106.7-92.72 106.7z" p-id="5763"></path><path d="M625.87 913.5H400.11V595.39c0-62.25 50.63-112.88 112.88-112.88s112.88 50.63 112.88 112.88V913.5z m-164.19-61.57H564.3V595.39c0-28.3-23.01-51.31-51.31-51.31s-51.31 23.01-51.31 51.31v256.54z" p-id="5764"></path><path d="M897.21 549.1c-7.9 0-15.75-3.01-21.77-9.02L513 177.64 150.56 540.08c-12.03 12.03-31.51 12.03-43.53 0-12.03-12.03-12.03-31.51 0-43.53l369.66-369.66c20.04-20.04 52.59-20.04 72.63 0l369.66 369.66c12.03 12.03 12.03 31.51 0 43.53-6.02 6.02-13.87 9.02-21.77 9.02z" p-id="5765"></path></svg>