<?xml version="1.0" standalone="no"?><!DOCTYPE svg PUBLIC "-//W3C//DTD SVG 1.1//EN" "http://www.w3.org/Graphics/SVG/1.1/DTD/svg11.dtd"><svg t="1608705928697" class="icon" viewBox="0 0 1024 1024" version="1.1" xmlns="http://www.w3.org/2000/svg" p-id="7065" xmlns:xlink="http://www.w3.org/1999/xlink" width="64" height="64"><defs><style type="text/css"></style></defs><path d="M718.82 540.43c80.74 0 146.42 65.69 146.42 146.42s-65.69 146.42-146.42 146.42S572.4 767.58 572.4 686.85s65.68-146.42 146.42-146.42m0-62.75c-115.53 0-209.18 93.65-209.18 209.18s93.65 209.18 209.18 209.18S928 802.38 928 686.85s-93.66-209.17-209.18-209.17z" p-id="7066"></path><path d="M716.59 767.46c-8.17 8.17-21.41 8.17-29.58 0l-75.42-75.42c-12.26-12.26-12.26-32.11 0-44.37 12.26-12.26 32.11-12.26 44.37 0l45.84 45.84 79.87-79.87c12.26-12.26 32.11-12.26 44.37 0 12.26 12.26 12.26 32.11 0 44.37L716.59 767.46zM597.95 335.46H263.26c-17.32 0-31.38-14.05-31.38-31.38s14.05-31.38 31.38-31.38h334.68c17.32 0 31.38 14.05 31.38 31.38s-14.05 31.38-31.37 31.38zM472.44 541.54H263.26c-17.32 0-31.38-14.05-31.38-31.38s14.05-31.38 31.38-31.38h209.18c17.32 0 31.38 14.05 31.38 31.38s-14.06 31.38-31.38 31.38zM430.61 747.63H263.26c-17.32 0-31.38-14.05-31.38-31.38 0-17.32 14.05-31.38 31.38-31.38H430.6c17.32 0 31.38 14.05 31.38 31.38 0 17.32-14.05 31.38-31.37 31.38z" p-id="7067"></path><path d="M543.55 921.16H204.68C145.87 921.16 98 873.32 98 814.49V212.08c0-58.83 47.86-106.71 106.67-106.71h451.84c58.81 0 106.67 47.88 106.67 106.71V433.8c0 17.32-14.05 31.38-31.38 31.38s-31.38-14.05-31.38-31.38V212.08c0-24.23-19.69-43.96-43.92-43.96H204.68c-24.23 0-43.92 19.73-43.92 43.96v602.41c0 24.23 19.69 43.92 43.92 43.92h338.87c17.32 0 31.38 14.05 31.38 31.38 0 17.31-14.06 31.37-31.38 31.37z" p-id="7068"></path></svg>