<?xml version="1.0" standalone="no"?><!DOCTYPE svg PUBLIC "-//W3C//DTD SVG 1.1//EN" "http://www.w3.org/Graphics/SVG/1.1/DTD/svg11.dtd"><svg t="1610348237399" class="icon" viewBox="0 0 1024 1024" version="1.1" xmlns="http://www.w3.org/2000/svg" p-id="4607" xmlns:xlink="http://www.w3.org/1999/xlink" width="64" height="64"><defs><style type="text/css"></style></defs><path d="M869.52 223.52c12.32 0 22.34 10.02 22.34 22.34v536.27c0 12.32-10.02 22.34-22.34 22.34H154.48c-12.32 0-22.34-10.02-22.34-22.34V245.86c0-12.32 10.02-22.34 22.34-22.34h715.04m0-67.04H154.48c-49.36 0-89.38 40.02-89.38 89.38v536.27c0 49.36 40.02 89.38 89.38 89.38h715.03c49.36 0 89.38-40.02 89.38-89.38V245.86c0.01-49.36-40.01-89.38-89.37-89.38z" p-id="4608"></path><path d="M377.93 382.41c28.75 0 52.14 23.39 52.14 52.14s-23.39 52.14-52.14 52.14-52.14-23.39-52.14-52.14 23.39-52.14 52.14-52.14m0-67.03c-65.82 0-119.17 53.36-119.17 119.17 0 65.82 53.36 119.17 119.17 119.17S497.1 500.37 497.1 434.55s-53.35-119.17-119.17-119.17z" p-id="4609"></path><path d="M377.93 561.17c52.19 0 96.13 35.97 108.35 84.41h-216.7c12.22-48.44 56.17-84.41 108.35-84.41m0-67.03c-98.73 0-178.76 80.03-178.76 178.76 0 13.7 1.86 26.91 4.78 39.73h347.96c2.92-12.82 4.78-26.02 4.78-39.73 0-98.73-80.03-178.76-178.76-178.76zM735.45 391.1H654.2c-16.82 0-30.47-15.01-30.47-33.52 0-18.5 13.65-33.52 30.47-33.52h81.25c16.82 0 30.47 15.01 30.47 33.52 0 18.51-13.65 33.52-30.47 33.52zM816.7 547.52H654.19c-16.82 0-30.47-15.01-30.47-33.52 0-18.5 13.65-33.52 30.47-33.52H816.7c16.82 0 30.47 15.01 30.47 33.52 0 18.5-13.65 33.52-30.47 33.52zM816.7 703.93H654.19c-16.82 0-30.47-15.01-30.47-33.52 0-18.5 13.65-33.52 30.47-33.52H816.7c16.82 0 30.47 15.01 30.47 33.52 0 18.51-13.65 33.52-30.47 33.52z" p-id="4610"></path></svg>