<?xml version="1.0" standalone="no"?><!DOCTYPE svg PUBLIC "-//W3C//DTD SVG 1.1//EN" "http://www.w3.org/Graphics/SVG/1.1/DTD/svg11.dtd"><svg t="1615260783753" class="icon" viewBox="0 0 1024 1024" version="1.1" xmlns="http://www.w3.org/2000/svg" p-id="3117" xmlns:xlink="http://www.w3.org/1999/xlink" width="128" height="128"><defs><style type="text/css"></style></defs><path d="M941.12 334.93L529.45 97.94a36.434 36.434 0 0 0-36.23 0L81.54 334.93c-11.28 6.48-18.21 18.49-18.21 31.5s6.93 25.02 18.21 31.5l127.1 73.17v349.79c0 11.54 5.51 22.42 14.83 29.28 4.73 3.5 118.07 85.32 287.86 85.32 169.76 0 283.13-81.82 287.86-85.32 9.32-6.86 14.83-17.74 14.83-29.28V471.1l127.1-73.17c11.28-6.48 18.21-18.49 18.21-31.5s-6.93-25.02-18.21-31.5z m-199.74 466.1c-32.87 19.39-117.62 61.81-230.04 61.81-112.47 0-197.24-42.47-230.04-61.81v-288.1l211.93 122c5.6 3.22 11.85 4.82 18.11 4.82s12.51-1.61 18.11-4.82l211.93-122v288.1zM511.33 561.52L172.47 366.43l338.87-195.09L850.2 366.43 511.33 561.52z" p-id="3118"></path><path d="M910.9 475.4c-20.05 0-36.32 16.27-36.32 36.32V802.3c0 20.05 16.27 36.32 36.32 36.32s36.32-16.27 36.32-36.32V511.72c0.01-20.05-16.26-36.32-36.32-36.32z" p-id="3119"></path></svg>