<?xml version="1.0" standalone="no"?><!DOCTYPE svg PUBLIC "-//W3C//DTD SVG 1.1//EN" "http://www.w3.org/Graphics/SVG/1.1/DTD/svg11.dtd"><svg t="1615260853464" class="icon" viewBox="0 0 1024 1024" version="1.1" xmlns="http://www.w3.org/2000/svg" p-id="3398" xmlns:xlink="http://www.w3.org/1999/xlink" width="128" height="128"><defs><style type="text/css"></style></defs><path d="M667.04 641.61H337.32c-19.5 0-35.33 15.82-35.33 35.33s15.82 35.33 35.33 35.33h329.73c19.5 0 35.33-15.82 35.33-35.33s-15.83-35.33-35.34-35.33zM667.04 759.37H337.32c-19.5 0-35.33 15.82-35.33 35.33s15.82 35.33 35.33 35.33h329.73c19.5 0 35.33-15.82 35.33-35.33s-15.83-35.33-35.34-35.33zM325.54 559.17c0 19.5 15.82 35.33 35.33 35.33 19.5 0 35.33-15.82 35.33-35.33 0-58.42 47.54-105.98 105.98-105.98s105.98 47.56 105.98 105.98c0 19.5 15.82 35.33 35.33 35.33s35.33-15.82 35.33-35.33c0-62.29-32.61-116.88-81.47-148.34 21.14-23.06 34.36-53.5 34.36-87.18 0-71.44-58.1-129.54-129.54-129.54s-129.54 58.1-129.54 129.54c0 33.68 13.23 64.12 34.36 87.18-48.84 31.46-81.45 86.05-81.45 148.34z m176.64-294.39c32.48 0 58.88 26.4 58.88 58.88s-26.4 58.88-58.88 58.88-58.88-26.4-58.88-58.88 26.4-58.88 58.88-58.88z" p-id="3399"></path><path d="M771.07 64.58H252.93c-64.93 0-117.76 52.83-117.76 117.76V841.8c0 64.93 52.83 117.76 117.76 117.76h518.14c64.93 0 117.76-52.83 117.76-117.76V182.34c0-64.93-52.83-117.76-117.76-117.76z m47.11 777.22c0 26.01-21.09 47.1-47.1 47.1H252.93c-26.02 0-47.1-21.09-47.1-47.1V182.34c0-26.02 21.09-47.1 47.1-47.1h518.14c26.02 0 47.1 21.09 47.1 47.1V841.8z" p-id="3400"></path></svg>