<?xml version="1.0" standalone="no"?><!DOCTYPE svg PUBLIC "-//W3C//DTD SVG 1.1//EN" "http://www.w3.org/Graphics/SVG/1.1/DTD/svg11.dtd"><svg t="1615269329221" class="icon" viewBox="0 0 1024 1024" version="1.1" xmlns="http://www.w3.org/2000/svg" p-id="3292" xmlns:xlink="http://www.w3.org/1999/xlink" width="128" height="128"><defs><style type="text/css"></style></defs><path d="M871.46 136.74H154.54c-49.49 0-89.61 40.12-89.61 89.61v448.07c0 49.49 40.12 89.61 89.61 89.61h716.91c49.49 0 89.61-40.12 89.61-89.61V226.35c0.01-49.49-40.11-89.61-89.6-89.61z m22.4 537.69c0 12.35-10.05 22.4-22.4 22.4H154.54c-12.36 0-22.4-10.05-22.4-22.4V226.35c0-12.35 10.05-22.4 22.4-22.4h716.91c12.35 0 22.4 10.05 22.4 22.4v448.08zM826.65 820.05h-627.3c-18.55 0-33.61 15.05-33.61 33.61 0 18.55 15.05 33.61 33.61 33.61h627.3c18.55 0 33.61-15.05 33.61-33.61s-15.06-33.61-33.61-33.61z" p-id="3293"></path><path d="M434.23 326.17c-13.13-13.13-34.39-13.13-47.52 0L285.9 426.99c-13.13 13.13-13.13 34.39 0 47.52l100.82 100.82a33.507 33.507 0 0 0 23.76 9.85c8.6 0 17.2-3.28 23.76-9.85 13.13-13.13 13.13-34.39 0-47.52l-77.06-77.06 77.06-77.06c13.12-13.12 13.12-34.39-0.01-47.52zM652.67 326.17c-13.13-13.13-34.39-13.13-47.52 0-13.13 13.13-13.13 34.39 0 47.52l77.06 77.06-77.06 77.06c-13.13 13.13-13.13 34.39 0 47.52a33.507 33.507 0 0 0 23.76 9.85c8.6 0 17.2-3.28 23.76-9.85l100.82-100.82c13.13-13.13 13.13-34.39 0-47.52L652.67 326.17z" p-id="3294"></path></svg>