<?xml version="1.0" standalone="no"?><!DOCTYPE svg PUBLIC "-//W3C//DTD SVG 1.1//EN" "http://www.w3.org/Graphics/SVG/1.1/DTD/svg11.dtd"><svg t="1610348421284" class="icon" viewBox="0 0 1024 1024" version="1.1" xmlns="http://www.w3.org/2000/svg" p-id="4887" xmlns:xlink="http://www.w3.org/1999/xlink" width="64" height="64"><defs><style type="text/css"></style></defs><path d="M648.18 267.23H379.82c-55.49 0-100.63-45.16-100.63-100.63S324.33 65.97 379.82 65.97h268.35c55.49 0 100.63 45.16 100.63 100.63s-45.13 100.63-100.62 100.63zM379.82 133.06c-18.5 0-33.54 15.07-33.54 33.54s15.05 33.54 33.54 33.54h268.35c18.5 0 33.54-15.07 33.54-33.54s-15.05-33.54-33.54-33.54H379.82z" p-id="4888"></path><path d="M737.63 960.48H290.37c-67.83 0-122.99-52.94-122.99-118.02V251.07c0-65.08 55.16-118.02 122.99-118.02 18.52 0 35.49 15.02 35.49 33.54s-13.06 33.54-31.58 33.54h-3.91c-30.84 0-55.91 22.84-55.91 50.93v591.39c0 28.08 25.07 50.93 55.91 50.93h447.25c30.84 0 55.91-22.84 55.91-50.93V251.07c0-27.21-23.52-49.44-53.55-50.62-18.52-0.7-32.93-16.29-32.21-34.81 0.74-18.56 16.23-33.98 34.83-32.19 66.17 2.58 118.02 54.25 118.02 117.62v591.39c0 65.08-55.16 118.02-122.99 118.02z" p-id="4889"></path><path d="M692.9 423.77H335.1c-18.52 0-33.54-15.02-33.54-33.54s15.02-33.54 33.54-33.54h357.8c18.52 0 33.54 15.02 33.54 33.54s-15.02 33.54-33.54 33.54zM692.9 602.67H335.1c-18.52 0-33.54-15.02-33.54-33.54s15.02-33.54 33.54-33.54h357.8c18.52 0 33.54 15.02 33.54 33.54s-15.02 33.54-33.54 33.54zM692.9 781.57H335.1c-18.52 0-33.54-15.02-33.54-33.54s15.02-33.54 33.54-33.54h357.8c18.52 0 33.54 15.02 33.54 33.54s-15.02 33.54-33.54 33.54z" p-id="4890"></path></svg>