<?xml version="1.0" standalone="no"?><!DOCTYPE svg PUBLIC "-//W3C//DTD SVG 1.1//EN" "http://www.w3.org/Graphics/SVG/1.1/DTD/svg11.dtd"><svg t="1611217568590" class="icon" viewBox="0 0 1024 1024" version="1.1" xmlns="http://www.w3.org/2000/svg" p-id="2316" xmlns:xlink="http://www.w3.org/1999/xlink" width="128" height="128"><defs><style type="text/css"></style></defs><path d="M833.95 869.24H190.42c-69.71 0-126.41-56.69-126.41-126.41V617.5l32.66-1.75c54.97-2.92 98.01-48.03 98.01-102.75s-43.05-99.83-98.01-102.75l-32.66-1.75V283.17c0-69.71 56.69-126.41 126.41-126.41h643.53c69.71 0 126.41 56.69 126.41 126.41v125.46l-32.81 1.57c-55.24 2.65-98.51 47.81-98.51 102.8s43.27 100.15 98.51 102.8l32.81 1.57v125.46c-0.01 69.71-56.7 126.41-126.41 126.41zM132.96 679.76v63.07c0 31.69 25.77 57.46 57.46 57.46h643.53c31.69 0 57.46-25.77 57.46-57.46v-62.89c-75.79-18.4-131.32-86.32-131.32-166.94s55.53-148.54 131.32-166.94v-62.89c0-31.69-25.77-57.46-57.46-57.46H190.42c-31.69 0-57.46 25.77-57.46 57.46v63.07c75.41 18.72 130.67 86.59 130.67 166.76s-55.25 148.04-130.67 166.76z" p-id="2317"></path><path d="M334.89 340.63c-19.03 0-34.47-15.44-34.47-34.47v-22.98c0-19.03 15.44-34.47 34.47-34.47s34.47 15.44 34.47 34.47v22.98c0.01 19.02-15.43 34.47-34.47 34.47zM334.89 645.42c-19.03 0-34.47-15.44-34.47-34.47v-43.54c0-19.03 15.44-34.47 34.47-34.47s34.47 15.44 34.47 34.47v43.54c0.01 19.03-15.43 34.47-34.47 34.47z m0-152.4c-19.03 0-34.47-15.44-34.47-34.47v-43.54c0-19.03 15.44-34.47 34.47-34.47s34.47 15.44 34.47 34.47v43.54c0.01 19.03-15.43 34.47-34.47 34.47zM334.89 777.31c-19.03 0-34.47-15.44-34.47-34.47v-22.98c0-19.03 15.44-34.47 34.47-34.47s34.47 15.44 34.47 34.47v22.98c0.01 19.02-15.43 34.47-34.47 34.47zM656.66 399.34H472.79c-19.03 0-34.47-15.44-34.47-34.47s15.44-34.47 34.47-34.47h183.87c19.03 0 34.47 15.44 34.47 34.47s-15.44 34.47-34.47 34.47z" p-id="2318"></path><path d="M656.66 560.22H472.79c-19.03 0-34.47-15.44-34.47-34.47s15.44-34.47 34.47-34.47h183.87c19.03 0 34.47 15.44 34.47 34.47s-15.44 34.47-34.47 34.47z" p-id="2319"></path><path d="M656.66 721.11H472.79c-19.03 0-34.47-15.44-34.47-34.47s15.44-34.47 34.47-34.47h183.87c19.03 0 34.47 15.44 34.47 34.47 0 19.02-15.44 34.47-34.47 34.47z" p-id="2320"></path></svg>