<?xml version="1.0" standalone="no"?><!DOCTYPE svg PUBLIC "-//W3C//DTD SVG 1.1//EN" "http://www.w3.org/Graphics/SVG/1.1/DTD/svg11.dtd"><svg t="1608705853389" class="icon" viewBox="0 0 1024 1024" version="1.1" xmlns="http://www.w3.org/2000/svg" p-id="6366" xmlns:xlink="http://www.w3.org/1999/xlink" width="64" height="64"><defs><style type="text/css"></style></defs><path d="M623.74 332.04H283.07c-17.63 0-31.94-14.31-31.94-31.94s14.31-31.94 31.94-31.94h340.67c17.63 0 31.94 14.31 31.94 31.94s-14.31 31.94-31.94 31.94zM495.99 529.53H283.07c-17.63 0-31.94-14.31-31.94-31.94 0-17.63 14.31-31.94 31.94-31.94h212.92c17.63 0 31.94 14.31 31.94 31.94 0 17.64-14.31 31.94-31.94 31.94zM495.99 727.07H283.07c-17.63 0-31.94-14.31-31.94-31.94 0-17.63 14.31-31.94 31.94-31.94h212.92c17.63 0 31.94 14.31 31.94 31.94 0 17.63-14.31 31.94-31.94 31.94z" p-id="6367"></path><path d="M568.37 928.22H223.45c-59.88 0-108.6-48.7-108.6-108.58V206.41c0-59.88 48.72-108.58 108.6-108.58h459.9c59.86 0 108.58 48.7 108.58 108.58V432.1c0 17.63-14.31 31.94-31.94 31.94-17.63 0-31.94-14.31-31.94-31.94V206.41c0-24.66-20.04-44.71-44.71-44.71h-459.9c-24.66 0-44.73 20.04-44.73 44.71v613.23c0 24.66 20.07 44.71 44.73 44.71h344.92c17.63 0 31.94 14.31 31.94 31.94s-14.3 31.93-31.93 31.93z" p-id="6368"></path><path d="M646.18 897.11c-13.33 0-25.53-8.36-30.11-21.33l-22.46-63.79c-3.1-8.77-2.18-18.51 2.47-26.57l161.4-279.54c9.48-16.47 25.24-28.4 44.37-33.52 21.48-5.7 45.43-2.37 65.73 9.36 18.49 10.65 32.4 27.11 39.17 46.37 7.28 20.67 5.45 42.92-5.01 61.05l-161.4 279.58a31.94 31.94 0 0 1-21.79 15.43l-66.5 12.43c-1.96 0.37-3.92 0.53-5.87 0.53z m12.56-92.49l8.5 24.12 25.14-4.7 154.06-266.86c1.54-2.66 0.69-6.07 0.06-7.9-1.68-4.78-5.63-9.27-10.85-12.27-5.61-3.2-12.02-4.28-17.22-2.99-1.87 0.5-4.35 1.58-5.61 3.74L658.74 804.62z" p-id="6369"></path></svg>