<?xml version="1.0" standalone="no"?><!DOCTYPE svg PUBLIC "-//W3C//DTD SVG 1.1//EN" "http://www.w3.org/Graphics/SVG/1.1/DTD/svg11.dtd"><svg t="1615262212816" class="icon" viewBox="0 0 1024 1024" version="1.1" xmlns="http://www.w3.org/2000/svg" p-id="4678" xmlns:xlink="http://www.w3.org/1999/xlink" width="128" height="128"><defs><style type="text/css"></style></defs><path d="M333.5 429c27.5 0 49.9 22.4 49.9 49.9s-22.4 49.9-49.9 49.9-49.9-22.4-49.9-49.9S306 429 333.5 429m0-64.1c-62.9 0-114 51-114 114 0 62.9 51 114 114 114s114-51 114-114-51-114-114-114z" p-id="4679"></path><path d="M333.5 600c49.9 0 91.9 34.4 103.6 80.7H229.9c11.7-46.3 53.7-80.7 103.6-80.7m0-64.1c-94.4 0-171 76.5-171 171 0 13.1 1.8 25.7 4.6 38h332.8c2.8-12.3 4.6-24.9 4.6-38 0-94.5-76.6-171-171-171zM718.2 480.1H590c-17.7 0-32.1-14.4-32.1-32.1s14.4-32 32.1-32h128.2c17.7 0 32.1 14.4 32.1 32.1s-14.4 32-32.1 32zM760.9 629.7H590c-17.7 0-32.1-14.4-32.1-32.1 0-17.7 14.4-32.1 32.1-32.1h171c17.7 0 32.1 14.4 32.1 32.1-0.1 17.7-14.5 32.1-32.2 32.1z" p-id="4680"></path><path d="M596.7 886.1H196.2C123.3 886.1 64 833.4 64 768.6V341.2c0-64.8 59.3-117.5 132.2-117.5h205.3c17.7 0 32.1 14.4 32.1 32.1s-14.4 32.1-32.1 32.1H196.2c-36.9 0-68.1 24.5-68.1 53.4v427.4c0 29 31.2 53.4 68.1 53.4h400.5c17.7 0 32.1 14.4 32.1 32.1 0 17.6-14.4 31.9-32.1 31.9zM897.1 586.9c-17.7 0-32.1-14.4-32.1-32.1V341.2c0-29-31.2-53.4-68.1-53.4H589.1c-17.7 0-32.1-14.4-32.1-32.1s14.4-32.1 32.1-32.1H797c72.9 0 132.2 52.7 132.2 117.5v213.7c-0.1 17.8-14.4 32.1-32.1 32.1z" p-id="4681"></path><path d="M496.6 373.2c-64.8 0-117.5-52.7-117.5-117.5v-85.5c0-17.7 14.4-32.1 32.1-32.1h171c17.7 0 32.1 14.4 32.1 32.1v85.5c-0.2 64.8-52.9 117.5-117.7 117.5z m-53.5-170.9v53.4c0 29.5 24 53.4 53.4 53.4s53.4-24 53.4-53.4v-53.4H443.1z" p-id="4682"></path><path d="M496.6 373.2c-64.8 0-117.5-52.7-117.5-117.5v-85.5c0-17.7 14.4-32.1 32.1-32.1h171c17.7 0 32.1 14.4 32.1 32.1v85.5c-0.2 64.8-52.9 117.5-117.7 117.5z m-53.5-170.9v53.4c0 29.5 24 53.4 53.4 53.4s53.4-24 53.4-53.4v-53.4H443.1zM926.6 800.6H684.8c-17.7 0-32.1-14.4-32.1-32.1s14.4-32.1 32.1-32.1h241.8c17.7 0 32.1 14.4 32.1 32.1s-14.4 32.1-32.1 32.1z" p-id="4683"></path><path d="M846 886.1c-8.2 0-16.4-3.1-22.7-9.4-12.5-12.5-12.5-32.8 0-45.3l62.8-62.8-62.8-62.8c-12.5-12.5-12.5-32.8 0-45.3s32.8-12.5 45.3 0l78.3 78.3c8 8 12.4 18.6 12.4 29.8s-4.4 21.9-12.4 29.8l-78.3 78.3c-6.2 6.3-14.4 9.4-22.6 9.4z m55.6-102h0.4-0.4z" p-id="4684"></path></svg>