<?xml version="1.0" standalone="no"?><!DOCTYPE svg PUBLIC "-//W3C//DTD SVG 1.1//EN" "http://www.w3.org/Graphics/SVG/1.1/DTD/svg11.dtd"><svg t="1615262091899" class="icon" viewBox="0 0 1024 1024" version="1.1" xmlns="http://www.w3.org/2000/svg" p-id="4535" xmlns:xlink="http://www.w3.org/1999/xlink" width="128" height="128"><defs><style type="text/css"></style></defs><path d="M650.31 317.65H283.13c-19 0-34.42-15.42-34.42-34.42s15.42-34.42 34.42-34.42h367.19c19 0 34.42 15.42 34.42 34.42-0.01 19-15.42 34.42-34.43 34.42zM420.82 530.51H283.13c-19 0-34.42-15.42-34.42-34.42s15.42-34.42 34.42-34.42h137.69c19 0 34.42 15.42 34.42 34.42s-15.42 34.42-34.42 34.42zM397.87 743.42H283.13c-19 0-34.42-15.42-34.42-34.42s15.42-34.42 34.42-34.42h114.75c19 0 34.42 15.42 34.42 34.42s-15.42 34.42-34.43 34.42z" p-id="4536"></path><path d="M604.5 960.22H232.75c-64.54 0-117.05-52.49-117.05-117.03V182.24c0-64.54 52.51-117.03 117.05-117.03h495.69c64.52 0 117.03 52.49 117.03 117.03v243.25c0 19-15.42 34.42-34.42 34.42s-34.42-15.42-34.42-34.42V182.24c0-26.58-21.6-48.18-48.18-48.18h-495.7c-26.58 0-48.21 21.6-48.21 48.18v660.95c0 26.58 21.63 48.18 48.21 48.18H604.5c19 0 34.42 15.42 34.42 34.42s-15.41 34.43-34.42 34.43z" p-id="4537"></path><path d="M679.18 856.55c-107.55 0-195.07-87.49-195.07-195.07s87.52-195.07 195.07-195.07 195.07 87.49 195.07 195.07-87.52 195.07-195.07 195.07z m0-321.29c-69.61 0-126.22 56.61-126.22 126.22S609.57 787.7 679.18 787.7 805.4 731.09 805.4 661.48s-56.61-126.22-126.22-126.22z" p-id="4538"></path><path d="M873.88 890.61c-8.81 0-17.62-3.36-24.34-10.09l-64.9-64.9c-13.45-13.45-13.45-35.23 0-48.68s35.23-13.45 48.68 0l64.9 64.9c13.45 13.45 13.45 35.23 0 48.68-6.72 6.73-15.53 10.09-24.34 10.09z" p-id="4539"></path></svg>