<?xml version="1.0" standalone="no"?><!DOCTYPE svg PUBLIC "-//W3C//DTD SVG 1.1//EN" "http://www.w3.org/Graphics/SVG/1.1/DTD/svg11.dtd"><svg t="1616118169283" class="icon" viewBox="0 0 1024 1024" version="1.1" xmlns="http://www.w3.org/2000/svg" p-id="2691" xmlns:xlink="http://www.w3.org/1999/xlink" width="128" height="128"><defs><style type="text/css"></style></defs><path d="M753.9 661c12.9-14.4 11.8-36.6-2.6-49.5-34.4-30.9-73.7-54.9-116-71.3 61.9-43.2 102.6-114.7 102.6-195.9 0-132.1-107.1-239.1-239.1-239.1s-239.2 107-239.2 239.1c0 81.4 40.8 153 102.9 196.2C221.6 595.3 121.4 732 121.4 892.1c0 19.4 15.7 35.1 35.1 35.1s35.1-15.7 35.1-35.1c0-169.5 137.9-307.3 307.3-307.3 76.1 0 149.1 28 205.6 78.9 14.2 12.8 36.4 11.7 49.4-2.7zM498.8 175.3c93.2 0 169 75.8 169 169s-75.8 169-169 169-169-75.8-169-169 75.8-169 169-169z" p-id="2692"></path><path d="M553 761.9c0 19.4 15.7 35.1 35.1 35.1h278.2c19.4 0 35.1-15.7 35.1-35.1 0-19.4-15.7-35.1-35.1-35.1H588.1c-19.4 0-35.1 15.7-35.1 35.1zM866.3 864.5H588.1c-19.4 0-35.1 15.7-35.1 35.1s15.7 35.1 35.1 35.1h278.2c19.4 0 35.1-15.7 35.1-35.1s-15.8-35.1-35.1-35.1z" p-id="2693"></path></svg>