<?xml version="1.0" standalone="no"?><!DOCTYPE svg PUBLIC "-//W3C//DTD SVG 1.1//EN" "http://www.w3.org/Graphics/SVG/1.1/DTD/svg11.dtd"><svg t="1610345635439" class="icon" viewBox="0 0 1024 1024" version="1.1" xmlns="http://www.w3.org/2000/svg" p-id="2767" xmlns:xlink="http://www.w3.org/1999/xlink" width="64" height="64"><defs><style type="text/css"></style></defs><path d="M769.04 874.56c-8.46 8.45-22.16 8.45-30.62 0l-82.8-82.8c-12.69-12.69-12.69-33.24 0-45.92 12.69-12.69 33.24-12.69 45.92 0l52.18 52.18L904.46 647.3c12.69-12.69 33.24-12.69 45.92 0 12.69 12.69 12.69 33.24 0 45.92L769.04 874.56zM337.15 428.8c27.86 0 50.52 22.66 50.52 50.52s-22.66 50.52-50.52 50.52-50.52-22.66-50.52-50.52 22.66-50.52 50.52-50.52m0-64.96c-63.78 0-115.48 51.7-115.48 115.48 0 63.77 51.7 115.47 115.48 115.47s115.48-51.7 115.48-115.47c-0.01-63.78-51.71-115.48-115.48-115.48z" p-id="2768"></path><path d="M337.15 602.01c50.57 0 93.15 34.85 104.99 81.8H232.16c11.84-46.95 54.42-81.8 104.99-81.8m0-64.95c-95.66 0-173.21 77.55-173.21 173.21 0 13.28 1.8 26.07 4.63 38.49h337.16c2.83-12.42 4.63-25.22 4.63-38.49 0-95.66-77.55-173.21-173.21-173.21zM726.88 480.52H596.97c-17.93 0-32.48-14.55-32.48-32.48 0-17.93 14.55-32.48 32.48-32.48h129.91c17.93 0 32.48 14.55 32.48 32.48-0.01 17.94-14.55 32.48-32.48 32.48zM770.18 632.08H596.97c-17.93 0-32.48-14.55-32.48-32.48s14.55-32.48 32.48-32.48h173.21c17.93 0 32.48 14.55 32.48 32.48s-14.55 32.48-32.48 32.48z" p-id="2769"></path><path d="M603.78 891.9H198.02c-73.86 0-133.93-53.41-133.93-119.08V339.79c0-65.67 60.07-119.08 133.93-119.08h207.99c17.93 0 32.48 14.55 32.48 32.48s-14.55 32.48-32.48 32.48H198.02c-37.38 0-68.97 24.78-68.97 54.13v433.03c0 29.35 31.59 54.13 68.97 54.13h405.76c17.93 0 32.48 14.55 32.48 32.48-0.01 17.92-14.55 32.46-32.48 32.46zM908.1 588.78c-17.93 0-32.48-14.55-32.48-32.48V339.79c0-29.35-31.57-54.13-68.95-54.13H596.04c-17.93 0-32.48-14.55-32.48-32.48s14.55-32.48 32.48-32.48h210.64c73.84 0 133.91 53.41 133.91 119.08V556.3c-0.01 17.93-14.56 32.48-32.49 32.48z" p-id="2770"></path><path d="M502.35 372.26c-65.67 0-119.08-53.41-119.08-119.08v-86.61c0-17.93 14.55-32.48 32.48-32.48h173.21c17.93 0 32.48 14.55 32.48 32.48v86.61c-0.01 65.67-53.42 119.08-119.09 119.08z m-54.13-173.21v54.13c0 29.86 24.27 54.13 54.13 54.13s54.13-24.27 54.13-54.13v-54.13H448.22z" p-id="2771"></path><path d="M502.35 372.26c-65.67 0-119.08-53.41-119.08-119.08v-86.61c0-17.93 14.55-32.48 32.48-32.48h173.21c17.93 0 32.48 14.55 32.48 32.48v86.61c-0.01 65.67-53.42 119.08-119.09 119.08z m-54.13-173.21v54.13c0 29.86 24.27 54.13 54.13 54.13s54.13-24.27 54.13-54.13v-54.13H448.22z" p-id="2772"></path></svg>