<?xml version="1.0" standalone="no"?><!DOCTYPE svg PUBLIC "-//W3C//DTD SVG 1.1//EN" "http://www.w3.org/Graphics/SVG/1.1/DTD/svg11.dtd"><svg t="1615269325451" class="icon" viewBox="0 0 1024 1024" version="1.1" xmlns="http://www.w3.org/2000/svg" p-id="3152" xmlns:xlink="http://www.w3.org/1999/xlink" width="128" height="128"><defs><style type="text/css"></style></defs><path d="M833.96 779.12l82.62-82.62c15.21-15.21 15.21-39.85 0-55.07-15.21-15.21-39.85-15.21-55.07 0l-82.62 82.62-56.71-56.71c49.66-61.89 76.76-138.16 76.76-218.64 0-93.6-36.46-181.63-102.68-247.8C630.1 134.68 542.08 98.23 448.48 98.23s-181.63 36.46-247.8 102.68C134.46 267.08 98 355.1 98 448.7s36.46 181.63 102.68 247.8c66.17 66.22 154.19 102.68 247.8 102.68 80.48 0 156.75-27.11 218.64-76.76l56.71 56.71-82.62 82.62c-15.21 15.21-15.21 39.85 0 55.07 7.61 7.61 17.54 11.41 27.53 11.41s19.93-3.8 27.53-11.41l82.62-82.62 82.62 82.62c7.61 7.61 17.54 11.41 27.53 11.41s19.93-3.8 27.53-11.41c15.21-15.21 15.21-39.85 0-55.07l-82.61-82.63zM255.75 641.43c-51.52-51.47-79.86-119.92-79.86-192.73s28.34-141.26 79.86-192.73c51.47-51.52 119.92-79.86 192.73-79.86s141.26 28.34 192.73 79.86c51.52 51.47 79.86 119.92 79.86 192.73s-28.34 141.26-79.86 192.73c-51.47 51.52-119.92 79.86-192.73 79.86s-141.27-28.34-192.73-79.86z" p-id="3153"></path></svg>