<?xml version="1.0" standalone="no"?><!DOCTYPE svg PUBLIC "-//W3C//DTD SVG 1.1//EN" "http://www.w3.org/Graphics/SVG/1.1/DTD/svg11.dtd"><svg t="1615260862611" class="icon" viewBox="0 0 1024 1024" version="1.1" xmlns="http://www.w3.org/2000/svg" p-id="3680" xmlns:xlink="http://www.w3.org/1999/xlink" width="128" height="128"><defs><style type="text/css"></style></defs><path d="M842.9 269.83H736.54V187.1c0-32.59-26.5-59.09-59.09-59.09h-330.9c-32.59 0-59.09 26.5-59.09 59.09v82.72H181.1c-45.61 0-82.72 37.12-82.72 82.72v472.71c0 45.61 37.12 82.72 82.72 82.72h661.8c45.61 0 82.72-37.12 82.72-82.72v-472.7c0-45.61-37.11-82.72-82.72-82.72z m-484.53-70.91h307.26v70.91H358.37v-70.91zM181.1 340.73h661.8c6.51 0 11.82 5.31 11.82 11.82v130H712.9V447.1c0-19.57-15.88-35.45-35.45-35.45S642 427.52 642 447.09v35.45H382v-35.45c0-19.57-15.88-35.45-35.45-35.45s-35.45 15.88-35.45 35.45v35.45H169.28v-130c0-6.5 5.31-11.81 11.82-11.81z m661.8 496.35H181.1c-6.51 0-11.82-5.31-11.82-11.82V553.45H311.1v35.45c0 19.57 15.88 35.45 35.45 35.45S382 608.48 382 588.91v-35.45h260v35.45c0 19.57 15.88 35.45 35.45 35.45s35.45-15.88 35.45-35.45v-35.45h141.81v271.81c0.01 6.5-5.3 11.81-11.81 11.81z" p-id="3681"></path></svg>