<?xml version="1.0" standalone="no"?><!DOCTYPE svg PUBLIC "-//W3C//DTD SVG 1.1//EN" "http://www.w3.org/Graphics/SVG/1.1/DTD/svg11.dtd"><svg t="1615260859394" class="icon" viewBox="0 0 1024 1024" version="1.1" xmlns="http://www.w3.org/2000/svg" p-id="3539" xmlns:xlink="http://www.w3.org/1999/xlink" width="128" height="128"><defs><style type="text/css"></style></defs><path d="M869.86 284.16h-268.4v-63.9c0-49.33-40.14-89.47-89.47-89.47H154.14c-49.33 0-89.47 40.14-89.47 89.47v613.48c0 49.33 40.14 89.47 89.47 89.47h715.72c49.33 0 89.47-40.14 89.47-89.47V373.63c0-49.33-40.14-89.47-89.47-89.47z m-715.72-76.68H512c7.04 0 12.78 5.74 12.78 12.78v63.9H154.14c-4.37 0-8.57 0.68-12.78 1.29v-65.2c0-7.03 5.74-12.77 12.78-12.77z m728.5 626.26c0 7.04-5.74 12.78-12.78 12.78H154.14c-7.04 0-12.78-5.74-12.78-12.78V373.63c0-7.04 5.74-12.78 12.78-12.78h715.72c7.04 0 12.78 5.74 12.78 12.78v460.11z" p-id="3540"></path><path d="M537.56 463.1H230.82c-21.17 0-38.34 17.17-38.34 38.34s17.17 38.34 38.34 38.34h306.74c21.17 0 38.34-17.17 38.34-38.34s-17.17-38.34-38.34-38.34z" p-id="3541"></path></svg>