<?xml version="1.0" standalone="no"?><!DOCTYPE svg PUBLIC "-//W3C//DTD SVG 1.1//EN" "http://www.w3.org/Graphics/SVG/1.1/DTD/svg11.dtd"><svg t="1615260904070" class="icon" viewBox="0 0 1024 1024" version="1.1" xmlns="http://www.w3.org/2000/svg" p-id="4107" xmlns:xlink="http://www.w3.org/1999/xlink" width="128" height="128"><defs><style type="text/css"></style></defs><path d="M736.33 488.01c-13.83-13.83-36.23-13.83-50.06 0L546.43 627.86V135.41c0-19.54-15.86-35.4-35.4-35.4s-35.4 15.86-35.4 35.4v492.44L335.79 488.01c-13.83-13.83-36.23-13.83-50.06 0-13.83 13.83-13.83 36.23 0 50.06l183.49 183.51c11.52 11.52 26.67 17.29 41.81 17.29s30.29-5.76 41.81-17.29l183.49-183.51c13.83-13.83 13.83-36.24 0-50.06z" p-id="4108"></path><path d="M804.73 926.06h-587.4C151.52 926.06 98 871.11 98 803.54V411.35c0-67.58 53.52-122.52 119.32-122.52h146.84c19.54 0 35.4 15.86 35.4 35.4s-15.86 35.4-35.4 35.4H217.33c-26.76 0-48.52 23.19-48.52 51.72v392.19c0 28.53 21.76 51.72 48.52 51.72h587.41c26.76 0 48.52-23.19 48.52-51.72V411.35c0-28.53-21.76-51.72-48.52-51.72H657.89c-19.54 0-35.4-15.86-35.4-35.4s15.86-35.4 35.4-35.4h146.84c65.8 0 119.32 54.95 119.32 122.52v392.19c0 67.57-53.51 122.52-119.32 122.52z" p-id="4109"></path></svg>