<?xml version="1.0" standalone="no"?><!DOCTYPE svg PUBLIC "-//W3C//DTD SVG 1.1//EN" "http://www.w3.org/Graphics/SVG/1.1/DTD/svg11.dtd"><svg t="1615269243982" class="icon" viewBox="0 0 1024 1024" version="1.1" xmlns="http://www.w3.org/2000/svg" p-id="2588" xmlns:xlink="http://www.w3.org/1999/xlink" width="128" height="128"><defs><style type="text/css"></style></defs><path d="M512 65.98c-246.25 0-446.59 200.34-446.59 446.59 0 246.25 200.34 446.59 446.59 446.59 246.25 0 446.59-200.34 446.59-446.59 0-246.25-200.34-446.59-446.59-446.59z m0 822.67c-207.7 0-376.08-168.38-376.08-376.08S304.3 136.5 512 136.5s376.08 168.38 376.08 376.08S719.7 888.65 512 888.65z" p-id="2589"></path><path d="M536.93 346.62c-13.77-13.77-36.08-13.77-49.86 0L346.04 487.65c-13.77 13.77-13.77 36.08 0 49.86l141.03 141.03c6.89 6.89 15.91 10.33 24.93 10.33s18.04-3.44 24.93-10.33L677.96 537.5c13.77-13.77 13.77-36.08 0-49.86L536.93 346.62zM512 603.75l-91.17-91.17L512 421.4l91.17 91.17L512 603.75z" p-id="2590"></path></svg>