<?xml version="1.0" standalone="no"?><!DOCTYPE svg PUBLIC "-//W3C//DTD SVG 1.1//EN" "http://www.w3.org/Graphics/SVG/1.1/DTD/svg11.dtd"><svg t="1615269309974" class="icon" viewBox="0 0 1024 1024" version="1.1" xmlns="http://www.w3.org/2000/svg" p-id="2870" xmlns:xlink="http://www.w3.org/1999/xlink" width="128" height="128"><defs><style type="text/css"></style></defs><path d="M419.14 525.13c-19.64 0-35.57 15.93-35.57 35.57V703c0 19.64 15.93 35.57 35.57 35.57s35.57-15.93 35.57-35.57V560.7c0-19.64-15.93-35.57-35.57-35.57zM608.86 525.13c-19.64 0-35.57 15.93-35.57 35.57V703c0 19.64 15.93 35.57 35.57 35.57s35.57-15.93 35.57-35.57V560.7c0.01-19.64-15.93-35.57-35.57-35.57z" p-id="2871"></path><path d="M914.8 389.97L535.35 105.38a35.446 35.446 0 0 0-42.71 0L113.2 389.97c-15.7 11.77-18.9 34.04-7.11 49.79 11.81 15.7 34.09 18.94 49.82 7.09l61.65-46.24v456.53H205.7c-19.64 0-35.57 15.93-35.57 35.57s15.93 35.57 35.57 35.57h616.6c19.64 0 35.57-15.93 35.57-35.57s-15.93-35.57-35.57-35.57h-11.86V400.62l61.65 46.24c6.42 4.82 13.9 7.13 21.33 7.13 10.82 0 21.49-4.91 28.49-14.22 11.79-15.75 8.59-38.03-7.11-49.8zM288.7 857.15v-450.6h450.6v450.6H288.7z m15.8-521.74L514 178.29l209.5 157.12h-419z" p-id="2872"></path></svg>