<?xml version="1.0" standalone="no"?><!DOCTYPE svg PUBLIC "-//W3C//DTD SVG 1.1//EN" "http://www.w3.org/Graphics/SVG/1.1/DTD/svg11.dtd"><svg t="1615260914857" class="icon" viewBox="0 0 1024 1024" version="1.1" xmlns="http://www.w3.org/2000/svg" p-id="4248" xmlns:xlink="http://www.w3.org/1999/xlink" width="128" height="128"><defs><style type="text/css"></style></defs><path d="M513 546.35c-8.25 0-16.5-3.15-22.8-9.45l-74.58-74.54c-12.6-12.6-12.6-33.01 0-45.61s33.01-12.6 45.61 0L513 468.49l51.78-51.74c12.6-12.6 33.01-12.6 45.61 0s12.6 33.01 0 45.61L535.8 536.9c-6.3 6.3-14.55 9.45-22.8 9.45z" p-id="4249"></path><path d="M612.45 598.81h-198.9c-17.81 0-32.25-14.45-32.25-32.25 0-17.81 14.45-32.25 32.25-32.25h198.89c17.81 0 32.25 14.45 32.25 32.25 0.01 17.8-14.44 32.25-32.24 32.25zM637.31 698.25H388.69c-17.81 0-32.25-14.45-32.25-32.25s14.45-32.25 32.25-32.25h248.62c17.81 0 32.25 14.45 32.25 32.25s-14.45 32.25-32.25 32.25z" p-id="4250"></path><path d="M513 810.09c-17.81 0-32.25-14.45-32.25-32.25V554.12c0-17.81 14.45-32.25 32.25-32.25s32.25 14.45 32.25 32.25v223.71c0 17.81-14.44 32.26-32.25 32.26z" p-id="4251"></path><path d="M685.02 384.46H340.98c-17.81 0-32.25-14.45-32.25-32.25 0-17.81 14.45-32.25 32.25-32.25h344.03c17.81 0 32.25 14.45 32.25 32.25 0.01 17.8-14.44 32.25-32.24 32.25z" p-id="4252"></path><path d="M513 960.22c-229.17 0-415.63-186.46-415.63-415.63 0-179.95 114.94-338.61 286.01-394.76 17.01-5.54 35.17 3.7 40.69 20.58 5.56 16.92-3.65 35.15-20.58 40.74-144.53 47.41-241.62 181.42-241.62 333.45 0 193.6 157.51 351.13 351.13 351.13S864.13 738.2 864.13 544.6c0-152.03-97.09-286.04-241.62-333.45-16.92-5.59-26.14-23.81-20.58-40.74 5.56-16.88 23.87-26.04 40.69-20.58 171.07 56.15 286.01 214.81 286.01 394.76 0 229.17-186.46 415.63-415.63 415.63z" p-id="4253"></path><path d="M513 384.46c-88.25 0-160.05-71.81-160.05-160.05S424.75 64.36 513 64.36s160.05 71.81 160.05 160.05S601.25 384.46 513 384.46z m0-255.59c-52.68 0-95.54 42.88-95.54 95.54s42.86 95.54 95.54 95.54 95.54-42.88 95.54-95.54-42.86-95.54-95.54-95.54z" p-id="4254"></path></svg>