<?xml version="1.0" standalone="no"?><!DOCTYPE svg PUBLIC "-//W3C//DTD SVG 1.1//EN" "http://www.w3.org/Graphics/SVG/1.1/DTD/svg11.dtd"><svg t="1615269222822" class="icon" viewBox="0 0 1024 1024" version="1.1" xmlns="http://www.w3.org/2000/svg" p-id="2448" xmlns:xlink="http://www.w3.org/1999/xlink" width="128" height="128"><defs><style type="text/css"></style></defs><path d="M881.08 178.38H144.91c-44.39 0-80.52 36.13-80.52 80.52v506.12c0 44.39 36.13 80.52 80.52 80.52h736.17c44.39 0 80.52-36.13 80.52-80.52V258.9c0-44.39-36.13-80.52-80.52-80.52z m-4.69 69.02l-363.4 242.27L149.6 247.4h726.79z m4.69 529.12H144.91c-6.34 0-11.5-5.17-11.5-11.5V319.54l360.45 240.31a34.52 34.52 0 0 0 19.14 5.8c6.67 0 13.34-1.93 19.14-5.8l360.45-240.31v445.47c-0.01 6.34-5.17 11.51-11.51 11.51z" p-id="2449"></path></svg>